<?xml version="1.0" standalone="no"?>
<!DOCTYPE svg PUBLIC "-//W3C//DTD SVG 20010904//EN"
 "http://www.w3.org/TR/2001/REC-SVG-20010904/DTD/svg10.dtd">
<svg version="1.0" xmlns="http://www.w3.org/2000/svg"
 width="814.000000pt" height="814.000000pt" viewBox="0 0 814.000000 814.000000"
 preserveAspectRatio="xMidYMid meet">
<metadata>
Created by potrace 1.11, written by Peter Selinger 2001-2013
</metadata>
<g transform="translate(0.000000,814.000000) scale(0.100000,-0.100000)"
fill="#000000" stroke="none">
<path d="M5776 7741 c-3 -5 -14 -8 -23 -7 -15 2 -77 -22 -238 -94 -11 -4 -42
-16 -70 -26 -27 -10 -56 -22 -62 -27 -7 -5 -13 -7 -13 -3 0 4 -13 0 -30 -9
-16 -8 -38 -15 -50 -15 -11 0 -20 -4 -20 -8 0 -5 -6 -9 -12 -10 -30 -2 -67
-12 -123 -32 -33 -12 -64 -23 -70 -24 -5 -2 -23 -8 -38 -14 -16 -7 -30 -12
-31 -12 -2 0 -21 -8 -42 -17 -22 -9 -43 -18 -49 -19 -5 -2 -47 -17 -91 -33
-45 -16 -84 -28 -86 -26 -2 2 -15 6 -28 8 -14 3 -32 8 -40 11 -8 3 -26 8 -40
10 -14 3 -34 7 -45 9 -156 34 -419 48 -615 33 -36 -3 -80 -6 -97 -7 -18 -1
-33 -6 -33 -11 0 -5 -8 -4 -19 1 -10 6 -21 8 -24 5 -3 -3 -23 -8 -44 -11 -21
-3 -67 -11 -103 -19 -36 -8 -76 -17 -90 -20 -64 -13 -151 -38 -215 -61 -38
-13 -77 -26 -85 -28 -20 -4 -169 -69 -211 -91 -19 -10 -37 -17 -41 -16 -5 1
-8 -3 -8 -10 0 -6 -3 -9 -6 -5 -3 3 -29 -8 -57 -24 -70 -41 -70 -41 -100 -62
l-25 -18 -99 64 c-101 66 -212 135 -273 170 -19 11 -48 28 -65 38 -16 10 -48
29 -70 41 -22 12 -49 28 -60 35 -11 7 -35 20 -54 28 -19 9 -40 23 -48 31 -8 8
-18 12 -23 9 -5 -3 -10 -1 -12 3 -5 13 -137 73 -212 97 -65 21 -123 21 -144 1
-13 -14 -4 -289 13 -375 5 -29 13 -81 20 -136 4 -27 20 -111 36 -185 32 -149
30 -141 53 -225 9 -33 19 -71 22 -85 3 -14 9 -41 14 -60 5 -19 11 -51 14 -71
3 -20 8 -42 10 -50 3 -8 8 -25 10 -39 3 -14 8 -36 11 -50 3 -14 8 -38 11 -55
3 -16 10 -50 15 -75 6 -25 13 -56 15 -69 3 -13 6 -27 7 -30 1 -4 -8 -27 -20
-51 -35 -71 -61 -133 -68 -163 -4 -15 -12 -27 -18 -27 -6 0 -8 -3 -5 -6 4 -3
-2 -25 -13 -48 -10 -24 -20 -52 -22 -62 -1 -10 -5 -24 -9 -29 -7 -11 -56 -191
-64 -235 -3 -14 -12 -43 -20 -65 -9 -22 -15 -41 -15 -42 1 -2 1 -4 0 -5 -3
-11 -11 -47 -14 -63 -2 -11 -4 -20 -5 -20 -2 0 -4 -9 -6 -20 -1 -11 -12 -53
-23 -94 -11 -41 -20 -77 -19 -80 0 -3 -1 -8 -2 -11 -3 -7 -7 -38 -14 -95 -4
-27 -8 -66 -11 -85 -24 -176 -24 -450 0 -610 3 -19 7 -51 10 -70 2 -19 9 -60
15 -90 6 -30 13 -71 16 -90 3 -19 8 -39 11 -43 3 -5 7 -23 10 -40 7 -41 11
-61 13 -64 2 -2 3 -6 4 -10 1 -5 4 -12 7 -18 3 -5 14 -39 23 -75 10 -36 31
-105 47 -155 16 -49 32 -100 34 -112 3 -13 17 -55 31 -93 14 -39 26 -80 27
-91 1 -10 4 -19 8 -19 4 0 10 -15 14 -32 4 -18 8 -35 9 -38 1 -3 6 -18 13 -35
33 -85 94 -255 98 -271 2 -11 9 -37 15 -59 6 -22 15 -56 19 -75 8 -37 10 -48
12 -52 0 -2 3 -35 6 -75 l4 -72 -40 -11 c-23 -6 -41 -15 -41 -20 0 -6 -6 -10
-13 -10 -7 0 -23 -9 -35 -20 -12 -11 -27 -20 -33 -20 -7 0 -10 -3 -7 -6 3 -3
-7 -19 -23 -37 -16 -17 -29 -37 -29 -44 0 -7 -4 -13 -9 -13 -5 0 -13 -10 -17
-22 -3 -12 -13 -37 -22 -57 -29 -67 -34 -109 -36 -296 -2 -147 3 -204 22 -277
5 -20 6 -40 2 -45 -7 -8 -48 -134 -55 -168 -2 -11 -4 -21 -5 -22 -2 -2 -3 -6
-4 -10 -2 -9 -200 -313 -215 -330 -6 -7 -11 -17 -11 -22 0 -5 -6 -16 -13 -23
-7 -7 -24 -33 -39 -58 -14 -25 -36 -56 -47 -69 -12 -13 -21 -28 -21 -33 0 -5
-11 -21 -25 -36 -14 -15 -25 -30 -25 -35 0 -9 -13 -26 -50 -65 -13 -15 -22
-28 -20 -29 7 -2 -210 -305 -229 -320 -8 -7 -11 -13 -7 -13 4 0 -10 -21 -31
-47 -21 -27 -52 -66 -68 -88 -16 -22 -33 -42 -37 -43 -4 -2 -8 -9 -8 -16 0 -7
-10 -22 -22 -33 -13 -11 -39 -43 -58 -71 -19 -28 -38 -51 -42 -52 -5 0 -8 -5
-8 -10 0 -6 -9 -21 -21 -33 -11 -12 -30 -34 -41 -49 l-19 -28 3605 0 3606 0 0
470 0 469 -27 48 c-14 26 -31 57 -37 68 -6 11 -13 22 -16 25 -3 3 -20 37 -39
75 -19 39 -40 77 -47 85 -7 8 -19 26 -26 40 -7 14 -40 66 -72 115 -84 128 -90
137 -105 168 -8 15 -18 27 -23 27 -5 0 -7 4 -3 9 3 5 -2 16 -10 24 -8 9 -15
22 -15 30 0 9 -3 17 -7 19 -10 4 -57 77 -66 101 -3 9 -11 17 -17 17 -5 0 -10
7 -10 16 0 9 -8 28 -18 42 -10 15 -33 54 -52 87 -18 33 -36 62 -40 65 -7 5
-21 38 -18 43 1 1 -10 15 -25 31 -15 16 -24 32 -21 37 3 5 0 9 -5 9 -6 0 -11
7 -11 15 0 8 -4 15 -10 15 -5 0 -10 7 -10 15 0 8 -4 15 -9 15 -5 0 -14 12 -20
28 -16 39 -55 106 -63 110 -5 2 -8 8 -8 14 0 6 -12 27 -27 47 -30 39 -33 42
-80 122 -17 30 -35 59 -40 64 -5 6 -18 26 -29 45 -12 19 -41 67 -64 105 -60
97 -172 315 -163 315 5 0 3 4 -3 8 -12 8 -103 233 -101 252 0 3 -5 15 -12 28
-11 21 -42 126 -57 192 -9 39 -10 44 -19 63 -4 10 -5 21 -2 24 4 3 2 13 -3 23
-8 15 -12 43 -26 180 -11 105 -16 199 -30 520 -2 69 -7 145 -9 170 -2 25 -7
70 -9 100 -20 217 -27 274 -52 380 -3 14 -7 39 -10 55 -3 17 -17 73 -30 125
-14 52 -27 102 -29 110 -2 8 -4 15 -5 15 -2 0 -5 14 -14 53 -7 30 -47 162 -57
187 -4 11 -13 38 -20 60 -6 22 -16 46 -22 53 -5 6 -6 12 -2 12 4 0 1 7 -6 17
-8 9 -13 17 -11 17 8 2 -51 142 -119 284 -27 56 -49 106 -51 110 -1 4 -13 27
-28 52 -14 25 -34 61 -43 80 -10 19 -27 49 -37 65 -11 17 -26 44 -34 60 -17
32 -38 67 -46 75 -3 3 -11 17 -19 32 -8 15 -21 36 -30 46 -9 9 -24 34 -35 54
-10 20 -34 53 -53 73 l-35 37 16 57 c10 31 19 66 22 78 2 12 9 35 15 50 6 16
13 39 15 53 3 14 7 33 10 42 3 9 7 26 9 37 3 12 7 31 10 44 9 38 35 180 41
222 3 22 7 51 10 65 3 14 7 39 10 55 8 54 9 60 17 73 5 6 6 12 3 12 -5 0 0 18
30 95 4 11 6 23 6 27 -1 4 7 31 19 60 23 58 27 104 12 119 -14 14 -70 22 -77
10z m-2838 -4731 c12 -12 22 -17 22 -13 0 4 4 3 8 -2 4 -6 28 -24 54 -40 27
-17 48 -33 48 -37 0 -5 5 -8 10 -8 14 0 139 -83 139 -92 1 -5 -29 -8 -66 -9
-87 -1 -135 -7 -208 -23 -73 -17 -88 -18 -82 -9 7 11 17 57 21 98 10 99 19
155 25 155 4 0 17 -9 29 -20z"/>
</g>
</svg>
